<svg xmlns="http://www.w3.org/2000/svg" viewBox="0 0 89.91 107.91"><defs><style>.cls-1{fill:#19166a;}</style></defs><g id="Layer_2" data-name="Layer 2"><g id="Layer_4_copy" data-name="Layer 4 copy"><path class="cls-1" d="M31.24,56.1c2.12-1.51,4.31-2.89,6.54-4.21,1.11-.66,2.24-1.3,3.38-1.92s2.28-1.22,3.44-1.81c2.32-1.17,4.67-2.27,7.11-3.27a40.62,40.62,0,0,0,6.71-3.4A40.31,40.31,0,0,0,69.1,31.05c.36-.52.74-1,1.1-1.54l1-1.59.52-.79.49-.82,1-1.63c.63-1.1,1.21-2.23,1.82-3.35s1.14-2.28,1.71-3.42h0l1-2.16L78.37,18a7.64,7.64,0,0,1,.21,1.09c0,.35,0,.69.07,1l0,1c0,.34-.06.67-.09,1s-.09.66-.15,1-.13.66-.2,1l-.27,1c-.1.31-.17.64-.3.94l-.36.93c-.12.3-.23.62-.38.91-.29.59-.56,1.19-.87,1.76l-1,1.69a8.77,8.77,0,0,1-.54.81l-.56.8-.57.79c-.19.26-.41.5-.61.75L71.48,36c-.42.49-.9.93-1.34,1.4s-.9.92-1.37,1.36-1,.85-1.47,1.26-1,.85-1.48,1.22c-1,.77-2.08,1.51-3.15,2.22.88-1,1.77-1.85,2.67-2.74s1.71-1.87,2.58-2.78c.42-.47.8-1,1.21-1.44S70,35.52,70.34,35l1.12-1.5c.19-.25.39-.49.55-.75l.51-.78a27.69,27.69,0,0,0,3.31-6.56,8.81,8.81,0,0,0,.28-.87l.24-.87c.07-.29.12-.59.18-.88a6.78,6.78,0,0,0,.16-.88c0-.3.08-.59.1-.89l0-.88c0-.29,0-.59,0-.87a5.24,5.24,0,0,0-.09-.79l1.63.11h0c-.52,1.19-1,2.38-1.57,3.56S75.62,24.5,75,25.65a58,58,0,0,1-4.09,6.68l-.56.81-.61.78c-.4.52-.8,1-1.22,1.55L67.21,37c-.43.5-.92.95-1.37,1.43a36,36,0,0,1-6.22,5l-.85.53c-.28.17-.58.33-.87.49l-.87.48-.9.44c-1.19.58-2.43,1.08-3.65,1.55-2.37.9-4.71,2-7,3C40.75,52,36.08,54.18,31.24,56.1Z"/><path class="cls-1" d="M76,25.2l6-10.11,1.57-2.66v2.81a7.08,7.08,0,0,1,.28,1.07c.08.34.09.68.14,1a13.9,13.9,0,0,1,0,2,16.9,16.9,0,0,1-.26,2c-.16.66-.33,1.31-.53,2s-.46,1.26-.74,1.87L81.57,27c-.35.56-.72,1.12-1.08,1.67l-.28.42-.3.38-.62.78-.62.77c-.2.26-.45.47-.67.72l-1.38,1.4c-1,.9-2,1.73-3,2.55s-2.12,1.51-3.23,2.18S68.14,39.11,67,39.66c1-.86,2-1.67,3-2.47.51-.38,1-.84,1.44-1.25l1.44-1.24c.48-.42.91-.88,1.37-1.31l.68-.65a6.94,6.94,0,0,0,.66-.67,32.69,32.69,0,0,0,2.41-2.87l.56-.74.28-.37.24-.4,1-1.57.81-1.65c.24-.56.42-1.14.65-1.7s.33-1.16.47-1.75a17.53,17.53,0,0,0,.25-1.77,10.48,10.48,0,0,0,0-1.77,8.27,8.27,0,0,0-.09-.87,6.76,6.76,0,0,0-.15-.8l1.57.15-6,10.11Z"/><path class="cls-1" d="M81.57,22.83l4.5-4.72,1-1,.5,1.27a6.3,6.3,0,0,1,.3,1.17,10.4,10.4,0,0,1,.09,1.1,9.66,9.66,0,0,1,0,1.08c-.05.36-.09.72-.15,1.07a12.86,12.86,0,0,1-.58,2c-.13.32-.24.66-.38,1l-.47.93a10,10,0,0,1-.5.91l-.55.87c-.19.29-.38.58-.58.86l-.64.8a16.48,16.48,0,0,1-1.32,1.56l-1.42,1.46c-.48.47-1,.9-1.51,1.35s-1,.9-1.55,1.28L76.6,37l-.81.59c-.28.19-.57.36-.85.54l-1.71,1.05c-.57.35-1.13.69-1.73,1-1.19.61-2.37,1.22-3.58,1.77,1-.83,2.11-1.62,3.17-2.4.54-.37,1-.8,1.55-1.21l1.54-1.22c.26-.21.53-.4.78-.61l.73-.65,1.48-1.28c.51-.4.94-.89,1.41-1.33s.94-.89,1.38-1.36a28.93,28.93,0,0,0,4.51-6.09l.42-.83c.13-.28.23-.57.34-.85a13.41,13.41,0,0,0,.56-1.73c.06-.3.1-.59.15-.89a8.46,8.46,0,0,0,.08-.88,8.19,8.19,0,0,0,0-.86L86,19.36,85.89,19l1.45.28L82.83,24Z"/><path class="cls-1" d="M83.57,27.8l4.88-3.15,1.31-.84v1.31h0a1.94,1.94,0,0,1,0,.2l0,.16a1.65,1.65,0,0,1,0,.3,5.63,5.63,0,0,1,0,.58l0,.56c0,.19-.06.36-.08.54s-.07.36-.11.54l-.16.51-.16.51-.22.48a10.22,10.22,0,0,1-.46.94l-.54.88a8.35,8.35,0,0,1-.6.83l-.63.8a30.26,30.26,0,0,1-6.07,5.15l-1.68,1c-.28.17-.55.35-.84.51l-.86.46c-1.16.61-2.29,1.27-3.5,1.77-.59.27-1.2.51-1.8.77l-.9.37-.92.32c-1.24.4-2.49.8-3.76,1.1,1.09-.73,2.22-1.37,3.34-2l.85-.46c.27-.17.55-.33.83-.49.56-.32,1.11-.64,1.67-.94a74.72,74.72,0,0,0,6.49-4,33.06,33.06,0,0,0,5.62-4.89,14.22,14.22,0,0,0,2-3l.2-.39.14-.4.15-.4c0-.14.06-.27.1-.41a4.45,4.45,0,0,0,.13-.8c0-.13,0-.25,0-.38s0-.12,0-.17v-.12l1.31.47-4.88,3.15Z"/><path class="cls-1" d="M21.83,50.25c0-3.92-.17-7.86-.37-11.78S21,30.61,20.63,26.7,19.78,18.88,19.3,15q-.37-2.93-.79-5.85c-.28-1.94-.57-3.91-.94-5.78h0l-.26-1.27,1.23.23a3,3,0,0,1,.6.17,5.12,5.12,0,0,1,.47.22,7,7,0,0,1,.83.54,8.24,8.24,0,0,1,1.32,1.32,13.34,13.34,0,0,1,1.83,3.06c.23.54.43,1.08.63,1.63s.36,1.09.5,1.65.29,1.11.4,1.67l.32,1.68-1.4.24-.35-1.61c-.12-.53-.28-1-.42-1.58s-.34-1-.5-1.55-.4-1-.63-1.48A11.81,11.81,0,0,0,20.48,5.6a6.93,6.93,0,0,0-1.07-1,5.29,5.29,0,0,0-.6-.36,2.38,2.38,0,0,0-.29-.13L18.31,4l1-1h0c.4,2,.67,3.94,1,5.91s.54,3.91.79,5.87c.49,3.92,1,7.84,1.33,11.79s.64,7.89.84,11.84.34,7.89.37,11.87Z"/><path class="cls-1" d="M24,19a31.2,31.2,0,0,1,0-4.43c.08-1.47.29-2.91.44-4.37L24.69,8,25,5.87c.23-1.44.47-2.88.79-4.31L26.14,0l1.1,1h0a3,3,0,0,1,.31.31l.25.29a6.13,6.13,0,0,1,.42.58,9.08,9.08,0,0,1,.68,1.21A14.4,14.4,0,0,1,29.79,6a21.32,21.32,0,0,1,.56,5.25c0,.87-.06,1.74-.14,2.6a24.3,24.3,0,0,1-.38,2.56,25.05,25.05,0,0,1-1.47,4.94c0-1.72.14-3.41.19-5.08s.11-3.34,0-5a25.56,25.56,0,0,0-.67-4.82,15.2,15.2,0,0,0-.74-2.25,9,9,0,0,0-.51-1,5.35,5.35,0,0,0-.29-.47l-.15-.22-.12-.16h0l1.44-.51c-.13,1.46-.33,2.9-.55,4.35l-.35,2.16-.39,2.16c-.29,1.43-.54,2.87-.9,4.29A29.68,29.68,0,0,1,24,19Z"/><path class="cls-1" d="M48.79,78.74a39.41,39.41,0,0,1,5.68,2.49l1.37.74,1.33.79c.89.52,1.75,1.1,2.61,1.68s1.69,1.19,2.52,1.83a28.77,28.77,0,0,1,2.39,2,17.84,17.84,0,0,1,2.15,2.41c.15.24.31.46.46.71a6.21,6.21,0,0,1,.4.77,4.58,4.58,0,0,1,.43,1.86l-1.75,0A5.27,5.27,0,0,0,65.19,92a21.68,21.68,0,0,0-2-2.07c-1.45-1.32-3-2.56-4.63-3.78s-3.26-2.39-4.89-3.61S50.39,80.07,48.79,78.74Z"/><path class="cls-1" d="M82.74,34.47l5.91-2.62,1.23-.55v1.23h0c0,.07,0,.16,0,.22v.17a1.67,1.67,0,0,1,0,.32,3.76,3.76,0,0,1-.09.6l-.15.58c-.06.19-.14.36-.21.54a6.94,6.94,0,0,1-.51,1c-.1.16-.19.33-.29.48l-.34.44a12.69,12.69,0,0,1-1.45,1.65c-.53.48-1.1.92-1.65,1.38a32.6,32.6,0,0,1-7.45,3.87c-1.3.45-2.6,1-3.93,1.3s-2.65.77-4,1l-2,.4-1,.18-1,.14c-1.37.16-2.73.31-4.1.39,1.29-.47,2.6-.87,3.9-1.26l1-.28,1-.32,1.94-.61c.64-.21,1.3-.36,1.93-.6s1.27-.45,1.91-.66c1.29-.39,2.51-.94,3.76-1.43a19.94,19.94,0,0,0,1.83-.81l.9-.42.45-.22.43-.24,1.72-1L84,38.33c.5-.4,1-.79,1.49-1.22a13.66,13.66,0,0,0,1.28-1.36l.29-.36c.09-.12.16-.25.24-.38a4.62,4.62,0,0,0,.43-.78c.06-.13.13-.26.18-.4s.08-.26.13-.4,0-.26.09-.39a.58.58,0,0,0,0-.18v-.08s0,0,0,0l1.22.69-5.92,2.62Z"/><path class="cls-1" d="M84.16,38.51l2.72-.28.77-.08.17.73a2.26,2.26,0,0,1,.05.46,1.43,1.43,0,0,1,0,.36c0,.12,0,.24,0,.35l-.08.32-.1.33L87.5,41c-.1.19-.19.39-.3.57l-.36.49a2.82,2.82,0,0,1-.38.46c-.27.27-.54.57-.84.82a13.56,13.56,0,0,1-1.85,1.28l-1,.54-1,.46a39.11,39.11,0,0,1-8.21,2.47l-2.09.41-2.1.3c-.7.11-1.4.21-2.1.29s-1.4.14-2.11.19a66,66,0,0,1-8.44.17c2.76-.62,5.53-1,8.27-1.52l2.06-.33,2-.4,2-.39c.68-.15,1.35-.33,2-.48s1.35-.3,2-.5l2-.58c.66-.17,1.29-.44,1.93-.66l1-.34.92-.41.92-.41.86-.49a15,15,0,0,0,1.62-1.05c.24-.2.45-.42.68-.63a2.21,2.21,0,0,0,.29-.33l.27-.34c.08-.12.13-.24.2-.36l.1-.18.06-.18.06-.17a1,1,0,0,0,0-.17.41.41,0,0,0,0-.15s0-.11,0-.06l.93.65-2.72.28Z"/><path class="cls-1" d="M53,82c-.32-.9-.69-1.88-1.11-2.79l-.64-1.38-.71-1.35a35.7,35.7,0,0,0-3.34-5.09c-.61-.82-1.32-1.56-2-2.34S43.84,67.54,43,66.9a41.74,41.74,0,0,0-5-3.76A22.46,22.46,0,0,1,43.77,66a14.89,14.89,0,0,1,1.3,1c.42.33.83.68,1.25,1a30.79,30.79,0,0,1,2.26,2.31,27.1,27.1,0,0,1,2,2.53l.9,1.34.82,1.4c.25.47.49,1,.74,1.43s.46,1,.65,1.48.4,1,.57,1.51.33,1,.47,1.59Z"/><path class="cls-1" d="M82,43.58l4.23-.19,1.29,0-.42,1.19h0a6.62,6.62,0,0,1-.25.62c-.09.18-.18.36-.28.54a9.6,9.6,0,0,1-.66,1,10.39,10.39,0,0,1-1.67,1.71,11.62,11.62,0,0,1-4.17,2.16,15.35,15.35,0,0,1-2.27.49c-.75.1-1.49.19-2.22.25-1.47.15-2.94.21-4.4.26s-2.93.07-4.39.08-2.92,0-4.37,0c-2.92-.07-5.81-.28-8.74-.59A34.24,34.24,0,0,1,58,50.37c.72-.07,1.45-.13,2.18-.18s1.45-.09,2.18-.12c1.45-.08,2.9-.12,4.35-.19s2.89-.14,4.33-.22,2.88-.2,4.31-.34c.71-.06,1.41-.15,2.11-.25a16,16,0,0,0,2-.43,7.57,7.57,0,0,0,1-.32,9.22,9.22,0,0,0,.91-.39c.31-.13.58-.32.88-.47s.55-.36.81-.56a8.51,8.51,0,0,0,1.4-1.35,7.06,7.06,0,0,0,.57-.78c.09-.13.17-.27.25-.41a3,3,0,0,0,.18-.37h0l.87,1.13-4.23.19Z"/><path class="cls-1" d="M28.66,12.77l3.75-9.06.52-1.27.92,1h0A3.86,3.86,0,0,1,34.3,4c.13.17.23.34.35.51l.28.53.24.55A10.54,10.54,0,0,1,35.8,7.8a14.51,14.51,0,0,1,0,4.51,17.82,17.82,0,0,1-.41,2.18c-.19.71-.42,1.41-.66,2.09s-.56,1.35-.89,2-.71,1.28-1.12,1.88c.08-.73.21-1.44.34-2.13s.22-1.41.35-2.09l.3-2.07c0-.69.18-1.36.19-2a17.72,17.72,0,0,0-.15-4c0-.33-.12-.64-.18-1s-.16-.63-.26-.93l-.15-.45A3.25,3.25,0,0,1,33,5.36L32.77,5c-.06-.12-.16-.28-.18-.33h0L34,4.36l-3.75,9.07Z"/><path class="cls-1" d="M33.81,13.9l3.94-6.21.94-1.48.61,1.63h0a13.2,13.2,0,0,1,.75,2.22,19.16,19.16,0,0,1,.43,2.26,18.71,18.71,0,0,1,0,4.61A19.35,19.35,0,0,1,40,19.2a12.79,12.79,0,0,1-.79,2.17,11.25,11.25,0,0,1-2.66,3.69,40.49,40.49,0,0,0,1.31-4.16,24.53,24.53,0,0,0,.65-4.15,24.43,24.43,0,0,0-.11-4.19c-.07-.7-.18-1.39-.3-2.08s-.28-1.4-.45-2h0l1.56.15-3.94,6.21Z"/><path class="cls-1" d="M77.47,49.23l6,.15.81,1.12a3.84,3.84,0,0,1-.45.93,5.8,5.8,0,0,1-.55.71,4.69,4.69,0,0,1-.63.63,7,7,0,0,1-.68.54l-.71.48-.74.39a12.9,12.9,0,0,1-1.54.65A23.38,23.38,0,0,1,72.62,56a43,43,0,0,1-6.33-.23l-1.56-.23a13.54,13.54,0,0,1-1.54-.31,28.48,28.48,0,0,1-3-.89,30.07,30.07,0,0,1,3.14-.08c1,0,2.07,0,3.09,0l.77,0h2.29c.26,0,.51,0,.77,0l.75-.05,1.52-.09A25.9,25.9,0,0,0,78.31,53a11.93,11.93,0,0,0,1.33-.54l.63-.32.59-.37a4.56,4.56,0,0,0,.55-.4,4.25,4.25,0,0,0,.5-.44,6.42,6.42,0,0,0,.43-.48l.17-.25a.6.6,0,0,0,.06-.11l0-.06h0l.81,1.12-6-.15Z"/><path class="cls-1" d="M76.7,53.68l3,.64,1.28.28-.75,1h0a4.76,4.76,0,0,1-.52.65c-.17.18-.36.35-.54.52l-.58.46-.61.4a4.43,4.43,0,0,1-.63.36c-.22.11-.42.24-.65.33l-.66.27-.33.14-.34.11a18.13,18.13,0,0,1-5.53.86l-.69,0-.69,0L67,59.65c-.91-.11-1.81-.21-2.71-.38s-1.76-.42-2.62-.7-1.7-.65-2.51-1a26.4,26.4,0,0,1,2.69.11c.44,0,.89,0,1.33.08l1.31.09,2.61.14h1.94l.64-.05c.42,0,.85,0,1.27-.09s.84-.14,1.26-.19A19.15,19.15,0,0,0,74.68,57l.3-.09.29-.11.57-.23a5.52,5.52,0,0,0,.55-.26,5.44,5.44,0,0,0,.54-.27l.52-.31.48-.34.45-.36c.13-.12.29-.28.35-.35h0L79.27,56l-3-.64Z"/><path class="cls-1" d="M72,57.88l3.68,1.53,1.2.51-.92.89h0a5,5,0,0,1-.6.52c-.2.13-.39.27-.6.38l-.6.32-.62.27A13.77,13.77,0,0,1,71,63a20.19,20.19,0,0,1-5.14.19c-.43,0-.85-.08-1.27-.14l-1.25-.17c-.83-.16-1.65-.32-2.46-.54s-1.61-.48-2.39-.78-1.54-.66-2.28-1c.85,0,1.67.12,2.49.22l1.22.12,1.22.15c.8.09,1.61.15,2.41.26l1.2.07c.4,0,.8,0,1.2,0l1.19,0,1.19-.06c.39,0,.78-.07,1.17-.1s.77-.1,1.15-.16a16,16,0,0,0,2.22-.55c.35-.14.69-.27,1-.43.16-.07.31-.17.47-.25l.36-.23h0L75,61l-3.68-1.53Z"/><path class="cls-1" d="M69.16,61.63l2.64,2.28.89.77-1,.61h0a6,6,0,0,1-.58.32c-.18.1-.36.18-.54.26a11.39,11.39,0,0,1-1.11.41,17.64,17.64,0,0,1-2.26.53,20.51,20.51,0,0,1-4.56.16l-1.13-.1-1.11-.16c-.75-.09-1.48-.29-2.2-.45s-1.43-.45-2.13-.7a20.89,20.89,0,0,1-2-1c.76,0,1.49.1,2.22.19s1.44.15,2.16.23a38.44,38.44,0,0,0,4.27.29A25.37,25.37,0,0,0,66.91,65a19.66,19.66,0,0,0,2-.45,9.82,9.82,0,0,0,1-.32c.15-.06.32-.11.46-.18a2.21,2.21,0,0,0,.4-.18h0l-.1,1.38L68,62.94Z"/><path class="cls-1" d="M61.61,65.34l2.57,2.07.93.74-1,.64h0a4.94,4.94,0,0,1-.51.32,4.52,4.52,0,0,1-.49.25,7,7,0,0,1-1,.39,10.44,10.44,0,0,1-2,.45A13.85,13.85,0,0,1,56,70.08l-1-.19-1-.28a13.84,13.84,0,0,1-1.9-.68,16.49,16.49,0,0,1-1.75-1,14.33,14.33,0,0,1-1.56-1.26,18.42,18.42,0,0,1,1.94.42c.63.13,1.24.3,1.85.46a24.46,24.46,0,0,0,3.65.7,16.13,16.13,0,0,0,3.61,0,12.45,12.45,0,0,0,1.74-.34,8,8,0,0,0,.83-.26l.39-.15.34-.15h0l-.06,1.38-2.57-2.06Z"/><path class="cls-1" d="M51.49,72.42a7.71,7.71,0,0,1-4.57-1.5l1-1.4a6.14,6.14,0,0,0,5.21,1l-1-1.56,1.45-1,2.21,3.3-.87.44A8.15,8.15,0,0,1,51.49,72.42Z"/><path class="cls-1" d="M48.79,85.53a5.83,5.83,0,0,1-2.51,2.1,7.51,7.51,0,0,1-1.6.53,9.75,9.75,0,0,1-1.71.21,9.31,9.31,0,0,1-1.74-.16,9.07,9.07,0,0,1-1.67-.55,8.46,8.46,0,0,1-2.73-2l.43.21h0a50.59,50.59,0,0,1-6.88-1.5,18.28,18.28,0,0,1-6.27-3.57,21.74,21.74,0,0,1-2.5-2.58,30.61,30.61,0,0,1-2.07-2.9A42,42,0,0,1,16.36,69c-.9-2.15-1.6-4.38-2.37-6.5a46.36,46.36,0,0,0-2.68-6.2,15.89,15.89,0,0,0-1.83-2.71,11,11,0,0,0-1.12-1.15c-.2-.18-.4-.36-.62-.53a4,4,0,0,0-.6-.43c-1.62-1-4-.71-5.93,0L.06,52,0,50.77a4.79,4.79,0,0,1,.25-1.72,5,5,0,0,1,.82-1.49,7,7,0,0,1,1.16-1.15,7.44,7.44,0,0,1,1.39-.87L3.16,46h0A7.88,7.88,0,0,1,3.64,45,7.76,7.76,0,0,1,4.23,44a7.53,7.53,0,0,1,1.58-1.61,6.9,6.9,0,0,1,2.07-1.07l.28-.08.26-.06c.17,0,.35-.09.53-.12A9.35,9.35,0,0,1,10,40.93a9,9,0,0,1,4.42.58,12.29,12.29,0,0,1,3.64,2.34,20.7,20.7,0,0,1,2.79,3.07,26.57,26.57,0,0,0,2.56,2.85,28,28,0,0,0,6.25,4.65,10.76,10.76,0,0,1-3.94-1.14A15.79,15.79,0,0,1,22.3,51a25.88,25.88,0,0,1-2.89-2.94,23.73,23.73,0,0,0-2.66-2.73,11.34,11.34,0,0,0-3.07-1.92A7.28,7.28,0,0,0,10.25,43c-.3,0-.6.07-.9.12l-.45.1-.23,0-.2.06A5.07,5.07,0,0,0,7,44a6.58,6.58,0,0,0-1.25,1.17,6.16,6.16,0,0,0-.52.71,8.07,8.07,0,0,0-.41.73h0l-.46.49-.51.29c-.18.11-.35.24-.51.36a5.06,5.06,0,0,0-.87.86,3,3,0,0,0-.7,2.06L.54,49.93a10.73,10.73,0,0,1,1.82-.54,11.4,11.4,0,0,1,1.86-.24A7,7,0,0,1,8,50a7.91,7.91,0,0,1,.8.58c.24.18.47.38.7.59a13.3,13.3,0,0,1,1.28,1.32,17.52,17.52,0,0,1,2,3A47.7,47.7,0,0,1,15.63,62c.8,2.19,1.47,4.35,2.35,6.44a40.31,40.31,0,0,0,3,6A27.25,27.25,0,0,0,23,77.11a19.92,19.92,0,0,0,2.3,2.38,16.44,16.44,0,0,0,5.68,3.23,49.9,49.9,0,0,0,6.66,1.45h.16l.27.21a12.35,12.35,0,0,0,2.37,1.43,8,8,0,0,0,2.61.63,10.68,10.68,0,0,0,2.79-.24C46.75,86,47.72,85.79,48.79,85.53Z"/><path class="cls-1" d="M57.25,101.54c-4.78-.65-7.22-9-7.81-11.25a7.71,7.71,0,0,1-4.25-3.16l1.54-.82a6.25,6.25,0,0,0,3.7,2.48l.48.14.11.49c.64,2.74,3,9.94,6.47,10.41Z"/><path class="cls-1" d="M55.87,94.53c.4,1,.73,2,1.08,3a18.87,18.87,0,0,0,1.16,2.76,11.28,11.28,0,0,0,1.62,2.37,9.25,9.25,0,0,0,2.17,1.77h0l-1.22,1L58.94,97l3.41,7.88.81,1.89-2-.85h0a8,8,0,0,1-2.84-2,10.7,10.7,0,0,1-1-1.39,12.31,12.31,0,0,1-1.61-4.72A8.22,8.22,0,0,1,55.87,94.53Z"/><path class="cls-1" d="M57.37,92.41c.87.72,1.68,1.48,2.47,2.26s1.56,1.57,2.3,2.38,1.47,1.64,2.17,2.49a28.31,28.31,0,0,1,1.93,2.67l.17.27v.12h0l.64,3.81.25,1.5-1.42-.55h0a14,14,0,0,1-1.64-.84,15.22,15.22,0,0,1-1.5-1,10.57,10.57,0,0,1-1.36-1.23,6.73,6.73,0,0,1-1.07-1.52l.7-.44a9.85,9.85,0,0,0,2.52,2,15.7,15.7,0,0,0,1.47.76c.49.23,1,.46,1.51.63h0l-1.17,1-.65-3.81h0l.18.39a25.64,25.64,0,0,1-2.16-2.5C62,99.91,61.39,99,60.79,98.1S59.57,96.27,59,95.32,57.87,93.41,57.37,92.41Z"/><path class="cls-1" d="M57.19,90.08a34.17,34.17,0,0,1,3.05,2.24c1,.79,1.91,1.62,2.83,2.46s1.84,1.69,2.75,2.54,1.81,1.72,2.69,2.6l.08.07,0,.09c.56.88,1.12,1.77,1.64,2.67l.58,1-1,.29h0a6.31,6.31,0,0,1-1.2.23,7,7,0,0,1-1.21,0A5.21,5.21,0,0,1,66.2,104a4.6,4.6,0,0,1-1.15-.58l1-1.41a2.87,2.87,0,0,0,.7.35,3.53,3.53,0,0,0,.81.17,5.07,5.07,0,0,0,.87,0,5.79,5.79,0,0,0,.84-.15h0l-.47,1.29c-.61-.86-1.18-1.73-1.76-2.61l.13.16c-.89-.87-1.76-1.76-2.63-2.65s-1.73-1.8-2.58-2.71-1.69-1.83-2.5-2.79A32.55,32.55,0,0,1,57.19,90.08Z"/><path class="cls-1" d="M60.22,90.72a24.84,24.84,0,0,1,2.89,1.9c.92.68,1.79,1.41,2.67,2.13,1.75,1.46,3.46,3,5.07,4.57l.93.94-1.17.48h0a4.46,4.46,0,0,1-.9.29,5.75,5.75,0,0,1-.94.13,4.24,4.24,0,0,1-1-.09,3.93,3.93,0,0,1-1-.39l.91-1.48a1.87,1.87,0,0,0,1,.23,4.3,4.3,0,0,0,.6-.08,4.83,4.83,0,0,0,.57-.18l-.23,1.42c-1.74-1.47-3.37-3-5-4.67-.8-.82-1.6-1.62-2.35-2.49A25.58,25.58,0,0,1,60.22,90.72Z"/><path class="cls-1" d="M62.52,90.61a13.52,13.52,0,0,1,2.27.94c.73.35,1.4.78,2.08,1.19a32.43,32.43,0,0,1,3.89,2.75l.83.7-.75.64h0a4.2,4.2,0,0,1-.49.37,4.82,4.82,0,0,1-.5.27,4.26,4.26,0,0,1-1.11.37,3.83,3.83,0,0,1-2.37-.32L67.14,96a2,2,0,0,0,1.28.18,2.92,2.92,0,0,0,.67-.22c.1-.06.21-.11.31-.18a1.76,1.76,0,0,0,.26-.19h0l.08,1.34a34.12,34.12,0,0,1-3.84-2.82c-.61-.52-1.22-1-1.78-1.6A13.14,13.14,0,0,1,62.52,90.61Z"/><path class="cls-1" d="M9.35,45.74a.87.87,0,1,0,.87-.87A.86.86,0,0,0,9.35,45.74Z"/><path class="cls-1" d="M38.91,16.72l3.86-2.83,1-.71.38,1.13h0a9.45,9.45,0,0,1,.34,1.08,9.75,9.75,0,0,1,.21,1.05,17.07,17.07,0,0,1,.21,2.13,19.22,19.22,0,0,1-.38,4.22,17.92,17.92,0,0,1-1.27,4A15.1,15.1,0,0,1,41,30.34c.32-1.36.67-2.66,1-4s.53-2.58.68-3.88a28,28,0,0,0,.18-3.88c0-.64-.05-1.28-.11-1.92l-.12-.95c0-.3-.1-.64-.16-.89h0l1.35.42L40,18.11Z"/><path class="cls-1" d="M42.47,24.7l3.86-3.09,1.2-1,.21,1.51h0A13.11,13.11,0,0,1,48,25.27a16,16,0,0,1-.41,3.08,12.6,12.6,0,0,1-1.06,2.92,8.73,8.73,0,0,1-1.86,2.47,19.5,19.5,0,0,0,.87-2.83A24.86,24.86,0,0,0,46,28.08c.09-.94.12-1.9.13-2.85s0-1.92-.06-2.82h0l1.41.54-3.86,3.1Z"/><path class="cls-1" d="M45.73,30.14,48,29.5l1-.27.1,1h0a10.34,10.34,0,0,1,.16,1.89A16.26,16.26,0,0,1,49.19,34a17.2,17.2,0,0,1-.79,3.62A16,16,0,0,1,46.86,41a8.16,8.16,0,0,1-2.64,2.62,35.23,35.23,0,0,1,1.12-3.38c.19-.53.4-1,.58-1.59s.33-1.07.48-1.61a28.2,28.2,0,0,0,.67-3.29c.08-.55.14-1.11.2-1.67s.09-1.13.11-1.64h0l1.11.75-2.29.63Z"/><path class="cls-1" d="M48.14,48.38l-1.42-1a10.62,10.62,0,0,0,1.51-7.93l-1.2.84-1-1.41,3.24-2.27.37,1.13C49.7,38,51.51,43.73,48.14,48.38Z"/><path class="cls-1" d="M29.74,59.58a17.1,17.1,0,0,0,5.46-.77,23.94,23.94,0,0,0,2.58-.91c.85-.35,1.69-.71,2.51-1.13A51,51,0,0,0,45.08,54c1.57-1,3.09-2.08,4.61-3.2a32.41,32.41,0,0,1-8.86,7,19.19,19.19,0,0,1-5.38,2A10.74,10.74,0,0,1,29.74,59.58Z"/><path class="cls-1" d="M53.67,48.5a6.47,6.47,0,0,1-1.43,1.43,6.87,6.87,0,0,1-1.8,1,7,7,0,0,1-2,.44,5.32,5.32,0,0,1-2-.23,11.53,11.53,0,0,0,2-.23c.32-.06.63-.13.94-.22l.47-.14.46-.16A11.6,11.6,0,0,0,52,49.56c.3-.15.56-.34.85-.51S53.38,48.67,53.67,48.5Z"/></g></g></svg>