<svg xmlns="http://www.w3.org/2000/svg" viewBox="0 0 620.01 205.6"><defs><style>.cls-1{font-size:120.9px;font-family:AtheneVoyageRegular, Athene Voyage;}.cls-1,.cls-4,.cls-5{fill:#19166a;}.cls-2{letter-spacing:-0.07em;}.cls-3{letter-spacing:0em;}.cls-5{font-size:57.23px;font-family:IntroScript-Medium, Intro Script;font-weight:500;letter-spacing:-0.04em;}</style></defs><g id="Layer_2" data-name="Layer 2"><g id="Layer_4_copy" data-name="Layer 4 copy"><text/><text class="cls-1" transform="translate(110.66 163.59) scale(1.01 1)"><tspan class="cls-2">V</tspan><tspan x="74.86" y="0">O</tspan><tspan class="cls-2" x="165.24" y="0">D</tspan><tspan class="cls-3" x="241.15" y="0">AS</tspan></text><path class="cls-4" d="M224.52,205.31V185H233a11.51,11.51,0,0,1,4.66.86,6.59,6.59,0,0,1,3,2.48,6.93,6.93,0,0,1,1.06,3.89,6.5,6.5,0,0,1-4.06,6.29,11.33,11.33,0,0,1-4.66.87h-6.29l1.66-1.68v7.6Zm3.8-7.19-1.66-1.83h6.11a5.73,5.73,0,0,0,3.79-1.08,4.13,4.13,0,0,0,0-6,5.79,5.79,0,0,0-3.79-1.06h-6.11l1.66-1.86Zm9.6,7.19-5.18-7.37h4.07l5.21,7.37Z"/><path class="cls-4" d="M258.49,202.12h11.56v3.19H254.69V185h14.95v3.19H258.49Zm-.29-8.68h10.18v3.11H258.2Z"/><path class="cls-4" d="M283.07,205.31V185h3.13L299,200.67h-1.55V185h3.75v20.31h-3.13l-12.82-15.67h1.55v15.67Z"/><path class="cls-4" d="M319.7,205.31V188.19h-6.79V185h17.38v3.19H323.5v17.12Z"/><path class="cls-4" d="M338,205.31,347.23,185H351l9.24,20.31h-4L348.32,187h1.52l-7.93,18.31Zm4.24-4.7,1.05-3h11l1,3Z"/><path class="cls-4" d="M371.61,205.31V185h3.8v17.12h10.71v3.19Z"/><path class="cls-4" d="M404.11,205.6a15.43,15.43,0,0,1-4.58-.68,10.27,10.27,0,0,1-3.49-1.76l1.31-2.93a10.81,10.81,0,0,0,3,1.6,11,11,0,0,0,3.71.64,8.14,8.14,0,0,0,2.61-.35,3.14,3.14,0,0,0,1.46-.94,2.15,2.15,0,0,0,.47-1.35,1.89,1.89,0,0,0-.67-1.5,5.23,5.23,0,0,0-1.75-.9c-.71-.22-1.5-.42-2.37-.61s-1.73-.41-2.6-.68a11.4,11.4,0,0,1-2.38-1,4.83,4.83,0,0,1-1.75-1.67,5,5,0,0,1-.65-2.67,5.42,5.42,0,0,1,.89-3,6.08,6.08,0,0,1,2.72-2.2,11.33,11.33,0,0,1,4.64-.83,14.55,14.55,0,0,1,3.65.46,10.57,10.57,0,0,1,3.16,1.34l-1.19,2.93a11.47,11.47,0,0,0-2.84-1.2,10.53,10.53,0,0,0-2.81-.4,7.33,7.33,0,0,0-2.55.38,3.08,3.08,0,0,0-1.44,1,2.27,2.27,0,0,0-.46,1.38,1.85,1.85,0,0,0,.66,1.49,4.55,4.55,0,0,0,1.73.89c.71.21,1.5.42,2.38.61s1.75.42,2.6.68a11,11,0,0,1,2.37,1,4.53,4.53,0,0,1,2.4,4.28,5.37,5.37,0,0,1-.89,3,6.11,6.11,0,0,1-2.73,2.2A11.27,11.27,0,0,1,404.11,205.6Z"/><text class="cls-5" transform="translate(204.29 48.65) scale(1.01 1)">Everything</text><path class="cls-4" d="M155.78,23c-15.71,9,9.89,16.54,29.89,17.62C185.67,40.66,174.34,12.41,155.78,23Z"/><path class="cls-4" d="M161.6,51.81c-10-8,8.76-10.52,22.89-9.1C184.49,42.71,173.43,61.27,161.6,51.81Z"/><path class="cls-4" d="M183.76,18.67c-9-3.4-3.55,9.53,2.67,18C186.43,36.7,194.34,22.68,183.76,18.67Z"/><path class="cls-4" d="M468.61,23c15.72,9-9.88,16.54-29.89,17.62C438.72,40.66,450.06,12.41,468.61,23Z"/><path class="cls-4" d="M462.8,51.81c10-8-8.76-10.52-22.9-9.1C439.9,42.71,451,61.27,462.8,51.81Z"/><path class="cls-4" d="M440.64,18.67c9-3.4,3.55,9.53-2.67,18C438,36.7,430.06,22.68,440.64,18.67Z"/><ellipse class="cls-4" cx="192.94" cy="195.16" rx="4.44" ry="4.4"/><ellipse class="cls-4" cx="441.83" cy="195.16" rx="4.44" ry="4.4"/><path class="cls-4" d="M561.34,124.3c2.11-1.52,4.31-2.89,6.54-4.21,1.11-.66,2.24-1.3,3.37-1.92s2.29-1.22,3.45-1.81c2.31-1.17,4.67-2.27,7.1-3.27a39.85,39.85,0,0,0,6.71-3.4,40.31,40.31,0,0,0,10.68-10.44c.37-.52.75-1,1.1-1.54l1-1.59.53-.8.48-.81,1-1.64c.62-1.1,1.21-2.23,1.82-3.34s1.13-2.28,1.7-3.42h0l1-2.16.62,2.27a7,7,0,0,1,.2,1.09c.05.34.05.68.07,1l0,1c0,.34-.06.67-.09,1a8.31,8.31,0,0,1-.15,1c-.06.32-.12.65-.2,1l-.27,1a7.5,7.5,0,0,1-.3,1l-.35.92a9.17,9.17,0,0,1-.38.91c-.29.59-.56,1.19-.87,1.77l-1,1.68c-.16.29-.36.55-.54.82l-.57.79-.57.79c-.18.27-.41.51-.61.76l-1.24,1.49c-.43.49-.9.93-1.34,1.4s-.91.92-1.38,1.36l-1.46,1.26c-.49.41-1,.84-1.49,1.22-1,.76-2.08,1.51-3.14,2.21.87-.94,1.76-1.85,2.66-2.74s1.71-1.87,2.58-2.77c.42-.47.81-1,1.22-1.44s.83-.94,1.2-1.45l1.13-1.49c.18-.25.38-.49.55-.75l.5-.79a27.66,27.66,0,0,0,3.32-6.55,7.25,7.25,0,0,0,.27-.87l.25-.87c.07-.29.12-.59.18-.88a6.89,6.89,0,0,0,.15-.89c0-.29.08-.59.11-.88l0-.89c0-.28,0-.58,0-.86a6.75,6.75,0,0,0-.1-.79l1.64.11h0c-.53,1.18-1,2.38-1.57,3.56s-1.15,2.33-1.76,3.48a60.4,60.4,0,0,1-4.1,6.68l-.56.8c-.19.27-.4.52-.6.78-.4.52-.81,1-1.22,1.55l-1.31,1.49c-.43.5-.92.95-1.38,1.43a35.93,35.93,0,0,1-6.21,5l-.85.53-.87.49-.88.48-.89.44c-1.2.58-2.43,1.07-3.65,1.55-2.37.9-4.71,2-7.05,3C570.85,120.19,566.17,122.38,561.34,124.3Z"/><path class="cls-4" d="M606.11,93.39l6-10.11,1.58-2.65v2.8A7.62,7.62,0,0,1,614,84.5a7.48,7.48,0,0,1,.14,1,12.76,12.76,0,0,1,0,2,15.29,15.29,0,0,1-.26,2c-.15.65-.33,1.31-.52,2s-.47,1.26-.74,1.87l-.91,1.78c-.35.56-.73,1.11-1.09,1.67l-.27.41-.31.39-.62.77-.62.77a7.61,7.61,0,0,1-.67.72l-1.37,1.41c-1,.89-2,1.73-3,2.55s-2.13,1.5-3.23,2.18-2.28,1.24-3.45,1.79c1-.87,2-1.67,3-2.47.5-.39,1-.84,1.44-1.25l1.44-1.24c.47-.42.91-.88,1.36-1.32l.69-.65c.22-.22.46-.42.66-.66A36.24,36.24,0,0,0,608,97.4l.55-.74.28-.38.24-.39,1-1.58.8-1.64c.24-.56.43-1.14.65-1.7s.33-1.16.47-1.75a15.42,15.42,0,0,0,.26-1.77,13.25,13.25,0,0,0,0-1.78c0-.29,0-.59-.09-.87A6.45,6.45,0,0,0,612,84l1.58.15-6,10.11Z"/><path class="cls-4" d="M611.66,91l4.51-4.72,1-1,.49,1.27a6.2,6.2,0,0,1,.31,1.17,10.19,10.19,0,0,1,.09,1.1,9.65,9.65,0,0,1,0,1.08c0,.36-.08.71-.14,1.07a13.92,13.92,0,0,1-.59,2c-.12.33-.24.66-.37,1l-.48.93a9.93,9.93,0,0,1-.49.91l-.56.87c-.19.29-.37.58-.57.86l-.64.8A19.77,19.77,0,0,1,612.8,100l-1.42,1.46c-.49.47-1,.9-1.51,1.34s-1,.9-1.55,1.29-1.08.8-1.63,1.19l-.81.59c-.27.19-.56.36-.84.54l-1.71,1c-.57.34-1.14.69-1.73,1-1.19.61-2.38,1.21-3.58,1.77,1-.83,2.1-1.62,3.16-2.4.55-.37,1-.81,1.56-1.21l1.54-1.23c.26-.2.52-.39.77-.6l.74-.65c.48-.43,1-.86,1.47-1.28s.94-.89,1.41-1.34,1-.88,1.38-1.35A28.58,28.58,0,0,0,614.56,94l.43-.83c.12-.28.22-.57.34-.85a14,14,0,0,0,.55-1.74c.06-.29.1-.58.16-.88s0-.59.08-.88a8.42,8.42,0,0,0,0-.87l0-.41-.07-.34,1.44.27-4.5,4.72Z"/><path class="cls-4" d="M613.66,96l4.88-3.15,1.31-.85v1.32h0a1.46,1.46,0,0,1,0,.2l0,.15c0,.11,0,.21.05.31a5.52,5.52,0,0,1,0,.57l0,.57a5.07,5.07,0,0,1-.09.54c0,.18-.06.36-.1.53l-.16.51-.17.51-.21.48a9.15,9.15,0,0,1-.47.94l-.54.89a6.89,6.89,0,0,1-.6.82l-.63.81a29.72,29.72,0,0,1-6.07,5.15l-1.67,1c-.28.17-.56.35-.84.51l-.87.46a38.16,38.16,0,0,1-3.5,1.76c-.59.28-1.19.52-1.79.78l-.91.37-.92.32c-1.24.4-2.48.79-3.75,1.1,1.09-.73,2.21-1.37,3.34-2l.84-.46.83-.49c.56-.32,1.11-.65,1.68-1a75.19,75.19,0,0,0,6.49-4,33,33,0,0,0,5.61-4.89,13.89,13.89,0,0,0,2-3l.19-.39.15-.4.15-.4c0-.14.06-.27.09-.41a4.45,4.45,0,0,0,.13-.8,2.41,2.41,0,0,0,0-.38.53.53,0,0,0,0-.18v-.08s0,0,0,0l1.3.47-4.88,3.15Z"/><path class="cls-4" d="M551.92,118.45c0-3.92-.16-7.86-.36-11.79s-.47-7.85-.84-11.76-.84-7.82-1.33-11.73c-.25-2-.5-3.91-.78-5.85s-.57-3.92-.94-5.78h0l-.27-1.27,1.24.23a2.76,2.76,0,0,1,.6.17l.47.22a6.86,6.86,0,0,1,2.15,1.86,13.66,13.66,0,0,1,1.82,3.06c.24.53.43,1.08.63,1.62s.36,1.1.5,1.66.29,1.11.4,1.67l.32,1.67-1.4.25-.34-1.61c-.12-.53-.29-1.06-.42-1.58s-.34-1-.51-1.55-.39-1-.62-1.48a11.81,11.81,0,0,0-1.66-2.66,6.55,6.55,0,0,0-1.08-1,5.17,5.17,0,0,0-.59-.36c-.1-.06-.2-.09-.3-.14l-.21-.06,1-1h0c.4,2,.68,3.93,1,5.9s.53,3.92.78,5.88c.49,3.92,1,7.84,1.34,11.79s.64,7.89.84,11.84.33,7.89.37,11.86Z"/><path class="cls-4" d="M554.08,87.21a28.62,28.62,0,0,1,0-4.44c.08-1.46.28-2.91.44-4.36l.28-2.18.31-2.16c.23-1.44.48-2.89.79-4.31l.34-1.56,1.11,1h0c.15.14.21.21.31.31a3,3,0,0,1,.24.28,7.21,7.21,0,0,1,.43.58,9.77,9.77,0,0,1,.67,1.22,13.69,13.69,0,0,1,.9,2.56,21.32,21.32,0,0,1,.56,5.25c0,.87-.07,1.74-.14,2.6s-.21,1.72-.38,2.56a25.74,25.74,0,0,1-1.47,4.94c0-1.72.13-3.41.19-5.08s.1-3.34,0-5a24.67,24.67,0,0,0-.68-4.82,16.43,16.43,0,0,0-.73-2.25c-.16-.36-.33-.71-.51-1-.09-.17-.2-.32-.29-.48l-.16-.21c0-.06-.12-.15-.12-.16h0l1.45-.51c-.14,1.45-.34,2.9-.56,4.35l-.35,2.16-.39,2.15c-.29,1.44-.53,2.88-.9,4.3A30,30,0,0,1,554.08,87.21Z"/><path class="cls-4" d="M578.89,146.94a39.41,39.41,0,0,1,5.68,2.49l1.36.74,1.33.78c.9.53,1.75,1.1,2.61,1.68s1.7,1.2,2.52,1.84a28.77,28.77,0,0,1,2.39,2.05,16.58,16.58,0,0,1,2.15,2.41c.16.23.32.46.47.7s.28.5.4.78a4.53,4.53,0,0,1,.42,1.85l-1.74.05a5.24,5.24,0,0,0-1.19-2.15,22.88,22.88,0,0,0-2-2.06c-1.45-1.33-3-2.56-4.64-3.79s-3.25-2.39-4.89-3.6S580.48,148.27,578.89,146.94Z"/><path class="cls-4" d="M612.83,102.67l5.92-2.63L620,99.5v1.23h0a1.8,1.8,0,0,1,0,.22v.16a1.72,1.72,0,0,1,0,.33,5.77,5.77,0,0,1-.09.6l-.15.58c-.06.18-.14.36-.21.54a6.87,6.87,0,0,1-.52,1c-.1.16-.18.34-.29.49l-.33.44a12,12,0,0,1-1.46,1.64c-.53.49-1.09.93-1.65,1.39a32.53,32.53,0,0,1-7.44,3.87c-1.31.45-2.6,1-3.94,1.3s-2.65.77-4,1l-2,.4-1,.18-1,.13c-1.36.17-2.73.31-4.1.4,1.3-.47,2.6-.88,3.91-1.26l1-.28,1-.32,1.93-.61c.65-.21,1.31-.37,1.94-.61l1.91-.65c1.29-.39,2.51-1,3.76-1.43.63-.22,1.22-.54,1.82-.81l.9-.43.45-.21.43-.24,1.73-1,1.62-1.09c.5-.4,1-.8,1.48-1.22a13.59,13.59,0,0,0,1.28-1.36l.29-.36c.1-.12.16-.26.25-.38a4.62,4.62,0,0,0,.43-.78,2.83,2.83,0,0,0,.17-.4l.13-.4a1.83,1.83,0,0,0,.09-.39,1.35,1.35,0,0,0,0-.18v-.12l1.22.68-5.91,2.63Z"/><path class="cls-4" d="M614.26,106.7l2.72-.27.77-.08.17.73a2.24,2.24,0,0,1,.05.45,2.17,2.17,0,0,1,0,.37c0,.12,0,.24,0,.35l-.09.32-.09.32a2.59,2.59,0,0,1-.14.29c-.1.19-.18.39-.29.56l-.36.5a3.44,3.44,0,0,1-.38.46c-.28.27-.55.56-.84.81a12.49,12.49,0,0,1-1.85,1.28c-.32.19-.64.38-1,.55l-1,.45a38.65,38.65,0,0,1-8.22,2.48c-.69.13-1.39.28-2.08.4l-2.1.31c-.7.1-1.4.21-2.1.29s-1.41.14-2.11.18a66.19,66.19,0,0,1-8.45.18c2.76-.62,5.53-1,8.27-1.52l2.07-.34,2-.4,2-.39,2-.48c.66-.16,1.35-.29,2-.49l2-.58c.67-.17,1.29-.44,1.94-.66l1-.34.91-.42.92-.41c.3-.15.58-.32.86-.48a12.22,12.22,0,0,0,1.62-1.06c.25-.19.45-.42.68-.62a2.3,2.3,0,0,0,.3-.33l.27-.35c.07-.11.12-.24.19-.35l.1-.18.06-.18.07-.17,0-.17a1,1,0,0,0,0-.15s0-.11,0-.07l.94.66-2.72.28Z"/><path class="cls-4" d="M583.13,150.17c-.31-.9-.68-1.88-1.1-2.79l-.65-1.38-.7-1.35a35.57,35.57,0,0,0-3.35-5.1c-.6-.82-1.31-1.55-2-2.33s-1.41-1.48-2.22-2.12a40,40,0,0,0-5-3.76,22.6,22.6,0,0,1,5.72,2.83,14,14,0,0,1,1.3,1c.43.34.84.69,1.25,1a29,29,0,0,1,2.26,2.31,25.64,25.64,0,0,1,2,2.53l.9,1.34.81,1.4c.26.47.5,1,.74,1.43s.46,1,.66,1.48.39,1,.56,1.51a14.57,14.57,0,0,1,.47,1.58Z"/><path class="cls-4" d="M612.09,111.78l4.23-.19,1.29,0-.43,1.19h0a6.5,6.5,0,0,1-.24.61c-.09.19-.18.37-.28.54a7,7,0,0,1-.67,1,10,10,0,0,1-1.66,1.71,11.69,11.69,0,0,1-4.18,2.17,16.42,16.42,0,0,1-2.27.49c-.74.1-1.48.19-2.22.25-1.47.14-2.93.21-4.4.26s-2.92.07-4.38.08-2.92,0-4.38,0c-2.91-.06-5.81-.28-8.73-.58a34.08,34.08,0,0,1,4.35-.65c.73-.07,1.46-.14,2.18-.18s1.46-.1,2.18-.13c1.46-.08,2.91-.11,4.35-.18l4.34-.22c1.44-.08,2.88-.2,4.3-.34.71-.07,1.42-.16,2.12-.25a18.5,18.5,0,0,0,2-.43c.33-.08.63-.21.95-.32a7.38,7.38,0,0,0,.91-.4,9,9,0,0,0,.87-.46c.27-.18.55-.36.81-.56a8.59,8.59,0,0,0,1.41-1.35q.3-.37.57-.78a4.36,4.36,0,0,0,.24-.41c.07-.13.15-.29.19-.38h0l.86,1.14-4.23.18Z"/><path class="cls-4" d="M558.75,81l3.75-9.07.53-1.26.91,1h0a4,4,0,0,1,.46.53,5.65,5.65,0,0,1,.34.51c.1.18.2.35.29.53l.24.54a10,10,0,0,1,.62,2.25,14.83,14.83,0,0,1,0,4.51c-.08.74-.26,1.46-.41,2.18s-.43,1.4-.67,2.09-.55,1.35-.89,2-.71,1.27-1.11,1.88c.08-.73.2-1.44.34-2.14s.22-1.4.35-2.09l.29-2.06c.06-.69.19-1.37.2-2.05a18.34,18.34,0,0,0-.15-4c0-.32-.12-.64-.18-1s-.16-.62-.26-.92l-.16-.45-.18-.43-.2-.4c-.06-.12-.16-.28-.19-.33h0l1.44-.27-3.75,9.07Z"/><path class="cls-4" d="M563.91,82.09l3.94-6.21.93-1.47L569.4,76h0a13.82,13.82,0,0,1,.75,2.22,18.62,18.62,0,0,1,.41,6.87,22.17,22.17,0,0,1-.44,2.27,14.08,14.08,0,0,1-.79,2.17,11.38,11.38,0,0,1-2.67,3.69A38.17,38.17,0,0,0,568,89.1a24.67,24.67,0,0,0,.66-4.16,24.34,24.34,0,0,0-.12-4.18c-.06-.7-.18-1.39-.3-2.09s-.28-1.39-.44-2h0l1.55.16L565.38,83Z"/><path class="cls-4" d="M607.57,117.42l6,.16.81,1.12a5.06,5.06,0,0,1-.45.93,6.48,6.48,0,0,1-.56.71,6,6,0,0,1-.62.62,4.88,4.88,0,0,1-.68.54l-.71.48-.75.4a12.76,12.76,0,0,1-1.53.65,23.5,23.5,0,0,1-6.36,1.16,41.82,41.82,0,0,1-6.34-.22l-1.55-.23c-.52-.08-1-.18-1.55-.31-1-.26-2-.53-3-.89,1.07-.09,2.11-.1,3.14-.09s2.07,0,3.09,0l.77,0h3.06l.76,0,1.51-.09a26.46,26.46,0,0,0,5.82-1.17,9.77,9.77,0,0,0,1.33-.55l.64-.31.59-.37a5.39,5.39,0,0,0,.54-.4,3.63,3.63,0,0,0,.5-.45,3.8,3.8,0,0,0,.43-.47l.17-.25a.34.34,0,0,0,.07-.11l0-.06h0l.81,1.12-6-.16Z"/><path class="cls-4" d="M606.8,121.87l2.94.65,1.28.28-.74,1h0a5.64,5.64,0,0,1-.53.65,6.75,6.75,0,0,1-.54.53l-.58.46-.61.4a6.44,6.44,0,0,1-.63.36c-.21.11-.42.24-.64.33l-.66.27-.34.14-.34.1a18.08,18.08,0,0,1-5.52.87h-.69l-.69,0-1.38-.08c-.9-.11-1.81-.21-2.7-.39s-1.77-.41-2.63-.7a26,26,0,0,1-2.51-1,26.6,26.6,0,0,1,2.7.11c.44,0,.89,0,1.32.07l1.32.1,2.6.14,1.3,0h.64l.64-.05c.43,0,.86,0,1.28-.1s.84-.13,1.26-.18a18,18,0,0,0,2.43-.6l.3-.08.28-.12.58-.22c.19-.07.36-.18.55-.26a5.52,5.52,0,0,0,.54-.28l.51-.3.49-.34c.14-.12.3-.24.44-.37a4.25,4.25,0,0,0,.36-.34h0l.54,1.33-3-.65Z"/><path class="cls-4" d="M602.09,126.08l3.67,1.53,1.21.5-.92.9h0a5.9,5.9,0,0,1-.61.52c-.19.13-.39.26-.59.37s-.4.23-.61.32l-.62.27a12.87,12.87,0,0,1-2.55.7,20.18,20.18,0,0,1-5.14.18c-.42,0-.84-.08-1.26-.14l-1.26-.17c-.82-.16-1.65-.31-2.46-.53s-1.6-.48-2.38-.78-1.54-.66-2.29-1.05c.85,0,1.68.11,2.49.22.41.05.82.08,1.23.12l1.21.15c.81.08,1.62.15,2.41.25l1.21.08c.4,0,.8,0,1.2,0l1.19,0,1.18-.05c.4,0,.78-.07,1.17-.1a10.79,10.79,0,0,0,1.16-.17,13.48,13.48,0,0,0,2.21-.55,10.36,10.36,0,0,0,1-.42c.17-.08.32-.17.47-.25s.31-.2.37-.24h0l.28,1.4-3.67-1.53Z"/><path class="cls-4" d="M599.26,129.83l2.63,2.27.9.78-1,.61h0c-.22.14-.38.22-.57.32s-.36.17-.54.26c-.37.15-.74.29-1.11.4a14.82,14.82,0,0,1-2.26.53,20.51,20.51,0,0,1-4.56.17l-1.13-.1-1.12-.17a18.25,18.25,0,0,1-2.2-.45c-.72-.19-1.43-.44-2.13-.7a19.7,19.7,0,0,1-2-1,19.72,19.72,0,0,1,2.22.19c.73.05,1.45.15,2.16.23a38.6,38.6,0,0,0,4.27.29,25.41,25.41,0,0,0,4.2-.31,18.93,18.93,0,0,0,2-.46c.33-.09.65-.2,1-.31l.46-.18.4-.18h0l-.1,1.38-2.64-2.28Z"/><path class="cls-4" d="M591.7,133.54l2.58,2.06.93.75-1,.64h0c-.2.14-.34.22-.51.32s-.32.17-.48.25a7.59,7.59,0,0,1-1,.38,10.46,10.46,0,0,1-2.05.46,14.13,14.13,0,0,1-4.11-.12l-1-.2-1-.27a17.7,17.7,0,0,1-1.89-.68,18.5,18.5,0,0,1-1.75-1,13.63,13.63,0,0,1-1.56-1.26,14.32,14.32,0,0,1,1.93.42c.64.13,1.25.3,1.85.46a24.67,24.67,0,0,0,3.65.69,16.13,16.13,0,0,0,3.61,0,12.45,12.45,0,0,0,1.74-.34c.29-.07.56-.17.83-.26l.4-.15.34-.16h0l-.06,1.39-2.57-2.06Z"/><path class="cls-4" d="M581.58,140.61a7.71,7.71,0,0,1-4.57-1.49l1-1.4a6.15,6.15,0,0,0,5.2.95l-1-1.57,1.46-.95,2.21,3.3-.88.44A8.42,8.42,0,0,1,581.58,140.61Z"/><path class="cls-4" d="M578.89,153.73a5.94,5.94,0,0,1-2.52,2.1,7.14,7.14,0,0,1-1.6.52,8,8,0,0,1-1.7.21,8.47,8.47,0,0,1-1.74-.16,8,8,0,0,1-1.67-.54,8.38,8.38,0,0,1-2.73-2l.42.22h0a49.36,49.36,0,0,1-6.87-1.51A18.23,18.23,0,0,1,554.2,149a23.38,23.38,0,0,1-2.5-2.58,30.61,30.61,0,0,1-2.07-2.9,42.38,42.38,0,0,1-3.17-6.27c-.91-2.15-1.6-4.38-2.38-6.5a45.81,45.81,0,0,0-2.68-6.2,15.85,15.85,0,0,0-1.82-2.71,13.61,13.61,0,0,0-1.12-1.16c-.2-.17-.4-.35-.62-.52a5.1,5.1,0,0,0-.61-.44c-1.61-1-4-.7-5.92,0l-1.16.43,0-1.18a4.62,4.62,0,0,1,.24-1.73,5.29,5.29,0,0,1,.83-1.49,6.64,6.64,0,0,1,1.16-1.15,7.84,7.84,0,0,1,1.39-.87l-.46.5h0a7.73,7.73,0,0,1,.47-1,7.12,7.12,0,0,1,.6-.94,7.31,7.31,0,0,1,1.58-1.61,6.85,6.85,0,0,1,2.06-1.07l.29-.08.26-.07.52-.11a10.13,10.13,0,0,1,1.08-.18,9,9,0,0,1,4.42.59,12.26,12.26,0,0,1,3.64,2.33,21.82,21.82,0,0,1,2.8,3.07,25.75,25.75,0,0,0,2.56,2.86,27.53,27.53,0,0,0,6.25,4.64,10.5,10.5,0,0,1-3.94-1.13,15.86,15.86,0,0,1-3.46-2.26,27.66,27.66,0,0,1-2.89-2.94,23.65,23.65,0,0,0-2.65-2.73,11.23,11.23,0,0,0-3.08-1.92,7.4,7.4,0,0,0-3.43-.46c-.3,0-.59.07-.89.13l-.45.1-.23,0-.2,0a5,5,0,0,0-1.49.71,6.27,6.27,0,0,0-1.26,1.16q-.27.34-.51.72a4.56,4.56,0,0,0-.41.73h0l-.46.49a5.8,5.8,0,0,0-.52.29,5.88,5.88,0,0,0-.51.36,5,5,0,0,0-.86.85,3.11,3.11,0,0,0-.71,2.07l-1.21-.76a12,12,0,0,1,1.82-.53,10.51,10.51,0,0,1,1.87-.24,6.91,6.91,0,0,1,3.82.88,6.45,6.45,0,0,1,.79.57c.24.19.47.39.7.59a13.26,13.26,0,0,1,1.28,1.32,17.79,17.79,0,0,1,2,3,47.76,47.76,0,0,1,2.78,6.44c.8,2.19,1.48,4.35,2.35,6.43a41.91,41.91,0,0,0,3,6,30.94,30.94,0,0,0,1.94,2.71,21.48,21.48,0,0,0,2.3,2.37,16.46,16.46,0,0,0,5.68,3.23,50.24,50.24,0,0,0,6.66,1.45h0l.15,0,.27.2a12,12,0,0,0,2.37,1.43,7.81,7.81,0,0,0,2.61.64,10.25,10.25,0,0,0,2.79-.25C576.84,154.22,577.81,154,578.89,153.73Z"/><path class="cls-4" d="M587.35,169.74c-4.79-.66-7.23-9-7.81-11.25a7.65,7.65,0,0,1-4.25-3.17l1.54-.81a6.21,6.21,0,0,0,3.69,2.47l.49.15.11.49c.63,2.73,3,9.93,6.47,10.41Z"/><path class="cls-4" d="M586,162.73c.4,1,.74,2,1.08,3a21.12,21.12,0,0,0,1.16,2.76,11.71,11.71,0,0,0,1.63,2.37A9.67,9.67,0,0,0,592,172.6h0l-1.21,1L589,165.23l3.41,7.89.82,1.88-2-.85h0a8,8,0,0,1-2.84-2,11.34,11.34,0,0,1-1-1.39,13.55,13.55,0,0,1-.77-1.52,13.14,13.14,0,0,1-.85-3.21A8.34,8.34,0,0,1,586,162.73Z"/><path class="cls-4" d="M587.47,160.61c.86.71,1.67,1.48,2.46,2.25s1.56,1.57,2.31,2.39,1.47,1.63,2.17,2.48a27.21,27.21,0,0,1,1.93,2.68l.17.27v.12h0l.64,3.81.25,1.5-1.42-.55h0a14.82,14.82,0,0,1-1.64-.84,15.36,15.36,0,0,1-1.51-1,10.58,10.58,0,0,1-1.36-1.24A7,7,0,0,1,590.4,171l.71-.44a9.65,9.65,0,0,0,2.52,2,17.16,17.16,0,0,0,3,1.39h0l-1.17,1-.64-3.82h0l.17.39A28.33,28.33,0,0,1,592.8,169c-.66-.87-1.31-1.76-1.92-2.68s-1.21-1.84-1.79-2.78S588,161.61,587.47,160.61Z"/><path class="cls-4" d="M587.29,158.28a32.31,32.31,0,0,1,3.05,2.24c1,.79,1.9,1.62,2.82,2.46s1.85,1.68,2.76,2.54,1.8,1.72,2.69,2.59l.07.08.06.08c.56.89,1.12,1.77,1.64,2.68l.57,1-1,.3h0a6,6,0,0,1-1.2.23,6.85,6.85,0,0,1-1.2,0,5.21,5.21,0,0,1-1.22-.26,4.78,4.78,0,0,1-1.15-.58l1-1.4a3.27,3.27,0,0,0,.7.35,3.42,3.42,0,0,0,.81.16,4.22,4.22,0,0,0,.87,0,4.82,4.82,0,0,0,.84-.16h0l-.47,1.29c-.61-.85-1.19-1.72-1.76-2.6l.13.16c-.89-.87-1.77-1.76-2.64-2.65s-1.73-1.8-2.57-2.71-1.7-1.84-2.5-2.79A33.49,33.49,0,0,1,587.29,158.28Z"/><path class="cls-4" d="M590.31,158.91a27.32,27.32,0,0,1,2.9,1.9c.92.68,1.79,1.41,2.67,2.14,1.74,1.46,3.46,3,5.06,4.57l.93.94-1.16.48h0a5.28,5.28,0,0,1-.91.29,4.73,4.73,0,0,1-.93.12,3.36,3.36,0,0,1-1-.09,3.46,3.46,0,0,1-1-.39l.92-1.47a1.77,1.77,0,0,0,1,.22,2.62,2.62,0,0,0,.61-.08,4.21,4.21,0,0,0,.56-.17l-.23,1.42c-1.74-1.47-3.37-3-5-4.67-.79-.82-1.59-1.63-2.34-2.49A26.08,26.08,0,0,1,590.31,158.91Z"/><path class="cls-4" d="M592.62,158.81a13.87,13.87,0,0,1,2.27.94,23.76,23.76,0,0,1,2.08,1.19,32.91,32.91,0,0,1,3.89,2.75l.83.69-.75.65h0a3.37,3.37,0,0,1-.49.36,3.05,3.05,0,0,1-.5.28,4.39,4.39,0,0,1-1.11.37,3.77,3.77,0,0,1-1.21,0,3.83,3.83,0,0,1-1.15-.35l.76-1.55a2.06,2.06,0,0,0,1.29.17,2.44,2.44,0,0,0,.66-.22l.32-.17a2.55,2.55,0,0,0,.26-.19h0l.07,1.34a32.07,32.07,0,0,1-3.83-2.83c-.61-.51-1.22-1-1.79-1.59A14.41,14.41,0,0,1,592.62,158.81Z"/><path class="cls-4" d="M539.44,113.94a.87.87,0,1,0,.87-.87A.87.87,0,0,0,539.44,113.94Z"/><path class="cls-4" d="M569,84.92l3.86-2.83,1-.71.37,1.13h0a7,7,0,0,1,.34,1.08c.09.35.16.7.22,1a15.34,15.34,0,0,1,.2,2.13A19.21,19.21,0,0,1,574.6,91a18.45,18.45,0,0,1-1.27,4,15.44,15.44,0,0,1-2.19,3.55c.31-1.36.66-2.66.94-4s.53-2.59.69-3.88a28.07,28.07,0,0,0,.18-3.88c0-.64-.06-1.28-.12-1.92,0-.32-.07-.64-.12-1s-.1-.64-.15-.89h0l1.35.42-3.86,2.83Z"/><path class="cls-4" d="M572.57,92.9l3.86-3.1,1.19-1,.22,1.51h0a13.78,13.78,0,0,1,.22,3.12,16,16,0,0,1-.42,3.07,12.23,12.23,0,0,1-1.06,2.93,8.33,8.33,0,0,1-1.86,2.46,18.29,18.29,0,0,0,.88-2.82,22.79,22.79,0,0,0,.44-2.83c.09-1,.12-1.9.13-2.85s0-1.93-.06-2.83h0l1.41.55-3.85,3.1Z"/><path class="cls-4" d="M575.83,98.33l2.28-.63,1-.28.1,1h0a12.47,12.47,0,0,1,.16,1.89,14.24,14.24,0,0,1-.1,1.85,17.34,17.34,0,0,1-.79,3.62,15.47,15.47,0,0,1-1.54,3.36,7.85,7.85,0,0,1-2.63,2.62,33.26,33.26,0,0,1,1.12-3.37c.19-.53.4-1,.57-1.59s.34-1.07.49-1.61a30.4,30.4,0,0,0,.66-3.29c.09-.56.15-1.11.2-1.67s.1-1.14.12-1.64h0l1.1.75-2.29.63Z"/><path class="cls-4" d="M578.23,116.58l-1.41-1a10.67,10.67,0,0,0,1.51-7.93l-1.21.84-1-1.42,3.24-2.26.36,1.12C579.8,106.17,581.6,111.93,578.23,116.58Z"/><path class="cls-4" d="M559.84,127.77a16.85,16.85,0,0,0,5.46-.76,27.27,27.27,0,0,0,2.58-.91c.84-.35,1.69-.71,2.5-1.14a51.1,51.1,0,0,0,4.8-2.78q2.34-1.52,4.6-3.2a29.55,29.55,0,0,1-4.1,3.88,32.27,32.27,0,0,1-4.75,3.14,19.74,19.74,0,0,1-5.38,2A10.64,10.64,0,0,1,559.84,127.77Z"/><path class="cls-4" d="M583.77,116.69a6.73,6.73,0,0,1-1.43,1.44,7.17,7.17,0,0,1-1.8,1,7,7,0,0,1-2,.44,5.36,5.36,0,0,1-2-.23,12.63,12.63,0,0,0,2-.23c.32-.07.64-.13.95-.23l.47-.13.45-.16a11.71,11.71,0,0,0,1.76-.82c.29-.15.56-.34.84-.51S583.48,116.87,583.77,116.69Z"/><path class="cls-4" d="M58.67,124.3c-2.12-1.52-4.31-2.89-6.54-4.21-1.11-.66-2.24-1.3-3.38-1.92s-2.28-1.22-3.44-1.81c-2.32-1.17-4.67-2.27-7.11-3.27a40.62,40.62,0,0,1-6.71-3.4A40.46,40.46,0,0,1,20.81,99.25c-.36-.52-.74-1-1.1-1.54l-1-1.59-.52-.8-.49-.81-1-1.64c-.63-1.1-1.21-2.23-1.82-3.34s-1.14-2.28-1.71-3.42h0l-1-2.16-.62,2.27a7.15,7.15,0,0,0-.21,1.09c-.05.34-.05.68-.07,1l0,1c0,.34.06.67.09,1s.09.67.15,1,.13.65.2,1l.27,1c.1.32.18.65.3,1l.36.92a9.17,9.17,0,0,0,.38.91c.29.59.56,1.19.87,1.77l1,1.68a8.92,8.92,0,0,0,.54.82l.56.79.57.79c.19.27.41.51.62.76l1.24,1.49c.42.49.9.93,1.34,1.4s.9.92,1.37,1.36l1.47,1.26c.49.41,1,.84,1.48,1.22,1,.76,2.08,1.51,3.15,2.21-.87-.94-1.77-1.85-2.67-2.74S22.86,107,22,106.1c-.42-.47-.8-1-1.21-1.44s-.83-.94-1.21-1.45l-1.12-1.49c-.19-.25-.39-.49-.55-.75l-.51-.79a27.63,27.63,0,0,1-3.31-6.55c-.12-.29-.19-.58-.28-.87l-.24-.87c-.07-.29-.12-.59-.18-.88a6.93,6.93,0,0,1-.16-.89c0-.29-.08-.59-.1-.88l0-.89c0-.28,0-.58,0-.86a5.24,5.24,0,0,1,.09-.79l-1.63.11h0c.52,1.18,1,2.38,1.57,3.56s1.15,2.33,1.76,3.48A58.84,58.84,0,0,0,19,100.53l.56.8c.2.27.41.52.61.78.4.52.8,1,1.22,1.55l1.31,1.49c.43.5.92.95,1.37,1.43a36,36,0,0,0,6.22,5l.85.53c.28.17.58.32.87.49l.87.48.9.44c1.19.58,2.43,1.07,3.65,1.55,2.37.9,4.71,2,7,3C49.16,120.19,53.83,122.38,58.67,124.3Z"/><path class="cls-4" d="M13.89,93.39l-6-10.11L6.33,80.63v2.8a7.75,7.75,0,0,0-.28,1.07c-.08.35-.09.69-.14,1a14,14,0,0,0,0,2,17.17,17.17,0,0,0,.26,2c.16.65.33,1.31.53,2s.46,1.26.74,1.87l.91,1.78c.35.56.72,1.11,1.08,1.67l.28.41.3.39.62.77.62.77a9.2,9.2,0,0,0,.67.72l1.38,1.41c1,.89,2,1.73,3,2.55s2.12,1.5,3.23,2.18,2.28,1.24,3.45,1.79c-1-.87-2-1.67-3-2.47-.51-.39-1-.84-1.44-1.25L17.1,102.9c-.48-.42-.91-.88-1.37-1.32l-.68-.65a6.85,6.85,0,0,1-.66-.66A34.22,34.22,0,0,1,12,97.4l-.56-.74-.28-.38-.24-.39-1-1.58-.81-1.64c-.24-.56-.42-1.14-.65-1.7S8.15,89.81,8,89.22,7.78,88,7.76,87.45a10.6,10.6,0,0,1,0-1.78,8.27,8.27,0,0,1,.09-.87A6.57,6.57,0,0,1,8,84l-1.57.15,6,10.11Z"/><path class="cls-4" d="M8.35,91,3.84,86.3l-.95-1-.5,1.27a6.11,6.11,0,0,0-.3,1.17A10.19,10.19,0,0,0,2,88.85a9.66,9.66,0,0,0,0,1.08c0,.36.09.71.15,1.07a12.75,12.75,0,0,0,.58,2c.13.33.24.66.38,1l.47.93a10,10,0,0,0,.5.91l.55.87c.19.29.38.58.58.86l.64.8A17.84,17.84,0,0,0,7.21,100l1.42,1.46c.48.47,1,.9,1.51,1.34s1,.9,1.55,1.29l1.62,1.19.81.59c.28.19.57.36.85.54l1.71,1c.57.34,1.13.69,1.73,1,1.19.61,2.37,1.21,3.58,1.77-1-.83-2.11-1.62-3.17-2.4-.54-.37-1-.81-1.55-1.21l-1.54-1.23c-.26-.2-.53-.39-.77-.6l-.74-.65c-.49-.43-1-.86-1.48-1.28s-.94-.89-1.41-1.34-.94-.88-1.38-1.35A29.28,29.28,0,0,1,5.44,94L5,93.19c-.13-.28-.23-.57-.34-.85a14.07,14.07,0,0,1-.56-1.74L4,89.72a8.72,8.72,0,0,1-.08-.88,8.42,8.42,0,0,1,0-.87L4,87.56,4,87.22l-1.45.27,4.51,4.72Z"/><path class="cls-4" d="M6.34,96,1.46,92.85.15,92v1.32h0a1.46,1.46,0,0,0,0,.2l0,.15A1.76,1.76,0,0,0,0,94a5.59,5.59,0,0,0,0,.57l0,.57c0,.18.06.36.08.54s.07.36.11.53l.16.51.16.51.22.48a9.1,9.1,0,0,0,.46.94l.54.89a8.22,8.22,0,0,0,.6.82l.63.81a30.26,30.26,0,0,0,6.07,5.15l1.68,1c.28.17.55.35.84.51l.86.46c1.16.61,2.29,1.27,3.5,1.76.59.28,1.2.52,1.8.78l.9.37.92.32c1.25.4,2.49.79,3.76,1.1-1.09-.73-2.22-1.37-3.34-2l-.85-.46c-.27-.17-.55-.33-.83-.49-.56-.32-1.11-.65-1.67-1a72.26,72.26,0,0,1-6.49-4,33.06,33.06,0,0,1-5.62-4.89,14.22,14.22,0,0,1-2-3l-.2-.39-.14-.4L2,95.71c0-.14-.06-.27-.1-.41a5.55,5.55,0,0,1-.13-.8c0-.13,0-.25,0-.38s0-.12,0-.18v-.11L.51,94.3l4.88,3.15Z"/><path class="cls-4" d="M68.08,118.45c0-3.92.17-7.86.37-11.79s.47-7.85.83-11.76.85-7.82,1.33-11.73q.38-2.94.79-5.85c.28-1.94.57-3.92.94-5.78h0l.26-1.27-1.23.23a2.46,2.46,0,0,0-.6.17,5.12,5.12,0,0,0-.47.22,7,7,0,0,0-.83.54,7.85,7.85,0,0,0-1.32,1.32,13.34,13.34,0,0,0-1.83,3.06c-.23.53-.43,1.08-.63,1.62s-.36,1.1-.5,1.66-.28,1.11-.4,1.67l-.32,1.67,1.4.25.35-1.61c.12-.53.28-1.06.42-1.58s.34-1,.51-1.55.39-1,.62-1.48a11.81,11.81,0,0,1,1.66-2.66,6.49,6.49,0,0,1,1.07-1,5.29,5.29,0,0,1,.6-.36c.1-.06.2-.09.29-.14l.21-.06-1-1h0c-.4,2-.67,3.93-1,5.9S69.13,81,68.88,83c-.49,3.92-1,7.84-1.33,11.79s-.64,7.89-.84,11.84-.34,7.89-.37,11.86Z"/><path class="cls-4" d="M65.93,87.21a31.34,31.34,0,0,0,0-4.44c-.08-1.46-.29-2.91-.44-4.36l-.28-2.18-.32-2.16c-.23-1.44-.47-2.89-.78-4.31l-.35-1.56-1.1,1h0a3,3,0,0,0-.31.31c-.09.09-.17.19-.25.28s-.29.39-.42.58A9.86,9.86,0,0,0,61,71.63a14.4,14.4,0,0,0-.89,2.56,21.32,21.32,0,0,0-.56,5.25c0,.87.06,1.74.14,2.6a24.3,24.3,0,0,0,.38,2.56,25.05,25.05,0,0,0,1.47,4.94c0-1.72-.14-3.41-.19-5.08s-.11-3.34,0-5A25.45,25.45,0,0,1,62,74.66a15.2,15.2,0,0,1,.74-2.25,8.22,8.22,0,0,1,.51-1c.09-.17.19-.32.29-.48l.15-.21c0-.06.12-.15.12-.16h0L62.39,70c.13,1.45.34,2.9.55,4.35l.35,2.16.39,2.15c.29,1.44.54,2.88.9,4.3A30.09,30.09,0,0,0,65.93,87.21Z"/><path class="cls-4" d="M41.12,146.94a39.41,39.41,0,0,0-5.68,2.49l-1.37.74-1.33.78c-.89.53-1.75,1.1-2.61,1.68s-1.69,1.2-2.52,1.84a28.77,28.77,0,0,0-2.39,2.05,17.84,17.84,0,0,0-2.15,2.41c-.15.23-.31.46-.46.7a7.16,7.16,0,0,0-.4.78,4.54,4.54,0,0,0-.43,1.85l1.75.05a5.24,5.24,0,0,1,1.19-2.15,21.6,21.6,0,0,1,2-2.06c1.45-1.33,3-2.56,4.63-3.79s3.26-2.39,4.89-3.6S39.52,148.27,41.12,146.94Z"/><path class="cls-4" d="M7.17,102.67,1.26,100,0,99.5v1.23H0c0,.07,0,.16,0,.22v.16a1.72,1.72,0,0,0,0,.33,3.94,3.94,0,0,0,.09.6l.15.58c.06.18.14.36.21.54a6.82,6.82,0,0,0,.51,1c.1.16.19.34.29.49l.34.44a12,12,0,0,0,1.45,1.64c.53.49,1.1.93,1.65,1.39A32.6,32.6,0,0,0,12.18,112c1.31.45,2.6,1,3.93,1.3s2.65.77,4,1l2,.4,1,.18,1,.13c1.37.17,2.73.31,4.1.4-1.29-.47-2.6-.88-3.9-1.26l-1-.28-1-.32L20.48,113c-.64-.21-1.3-.37-1.93-.61l-1.91-.65c-1.29-.39-2.51-1-3.76-1.43-.64-.22-1.22-.54-1.83-.81l-.9-.43-.45-.21-.43-.24-1.72-1-1.62-1.09c-.5-.4-1-.8-1.49-1.22A14.85,14.85,0,0,1,3.16,104l-.29-.36c-.09-.12-.16-.26-.24-.38a4.62,4.62,0,0,1-.43-.78c-.06-.13-.13-.26-.18-.4s-.08-.27-.13-.4,0-.26-.09-.39a1.24,1.24,0,0,1,0-.18v-.12l-1.23.68,5.92,2.63Z"/><path class="cls-4" d="M5.75,106.7,3,106.43l-.77-.08-.17.73a3,3,0,0,0,0,.82c0,.12,0,.24.05.35l.08.32.1.32c0,.1.09.2.13.29s.19.39.3.56l.36.5a2.82,2.82,0,0,0,.38.46c.28.27.54.56.84.81a12,12,0,0,0,1.85,1.28c.32.19.64.38,1,.55l1,.45a38.56,38.56,0,0,0,8.21,2.48c.7.13,1.39.28,2.09.4l2.1.31c.7.1,1.4.21,2.1.29s1.4.14,2.11.18a66,66,0,0,0,8.44.18c-2.76-.62-5.53-1-8.27-1.52l-2.06-.34-2.05-.4-2-.39c-.68-.15-1.35-.32-2-.48s-1.35-.29-2-.49l-2-.58c-.66-.17-1.29-.44-1.93-.66l-1-.34L8.91,112,8,111.6c-.29-.15-.57-.32-.86-.48a13.68,13.68,0,0,1-1.62-1.06c-.24-.19-.45-.42-.68-.62a2.21,2.21,0,0,1-.29-.33l-.27-.35c-.08-.11-.13-.24-.2-.35l-.1-.18-.06-.18-.06-.17a1,1,0,0,1,0-.17.44.44,0,0,1,0-.15s0-.11,0-.07l-.93.66,2.72.28Z"/><path class="cls-4" d="M36.87,150.17c.32-.9.69-1.88,1.11-2.79l.64-1.38.71-1.35a36.37,36.37,0,0,1,3.34-5.1c.61-.82,1.32-1.55,2-2.33s1.42-1.48,2.22-2.12a40.71,40.71,0,0,1,5-3.76,22.76,22.76,0,0,0-5.72,2.83c-.44.3-.89.61-1.3,1l-1.25,1a30.79,30.79,0,0,0-2.26,2.31,27.1,27.1,0,0,0-2,2.53l-.9,1.34-.82,1.4c-.25.47-.49,1-.74,1.43s-.46,1-.65,1.48-.4,1-.57,1.51-.33,1-.47,1.58Z"/><path class="cls-4" d="M7.92,111.78l-4.23-.19-1.29,0,.42,1.19h0a6.35,6.35,0,0,0,.25.61c.09.19.18.37.28.54a7.86,7.86,0,0,0,.66,1,10,10,0,0,0,1.67,1.71,11.64,11.64,0,0,0,4.17,2.17,16.74,16.74,0,0,0,2.27.49c.75.1,1.49.19,2.22.25,1.47.14,2.94.21,4.4.26s2.93.07,4.39.08,2.92,0,4.37,0c2.92-.06,5.81-.28,8.74-.58a34.24,34.24,0,0,0-4.36-.65c-.72-.07-1.45-.14-2.18-.18s-1.45-.1-2.18-.13c-1.45-.08-2.9-.11-4.35-.18l-4.33-.22c-1.45-.08-2.88-.2-4.31-.34-.71-.07-1.41-.16-2.11-.25a18,18,0,0,1-2-.43,9.63,9.63,0,0,1-.95-.32,7.38,7.38,0,0,1-.91-.4c-.31-.12-.58-.31-.88-.46s-.55-.36-.81-.56a8.94,8.94,0,0,1-1.4-1.35,7.06,7.06,0,0,1-.57-.78l-.25-.41a3.07,3.07,0,0,1-.18-.38h0l-.87,1.14,4.23.18Z"/><path class="cls-4" d="M61.25,81,57.5,71.9,57,70.64l-.92,1h0a3.86,3.86,0,0,0-.45.53c-.13.16-.23.34-.35.51l-.28.53-.24.54A10.62,10.62,0,0,0,54.11,76a14.51,14.51,0,0,0,0,4.51,17.82,17.82,0,0,0,.41,2.18c.19.71.42,1.4.66,2.09s.56,1.35.89,2,.71,1.27,1.12,1.88c-.08-.73-.21-1.44-.34-2.14s-.22-1.4-.35-2.09l-.3-2.06C56.15,81.68,56,81,56,80.32a17.74,17.74,0,0,1,.15-4c0-.32.12-.64.18-1s.16-.62.26-.92l.15-.45c.07-.14.13-.28.19-.43l.2-.4c.06-.12.16-.28.19-.33h0l-1.44-.27,3.75,9.07Z"/><path class="cls-4" d="M56.1,82.09l-3.94-6.21-.94-1.47L50.61,76h0a12.9,12.9,0,0,0-.75,2.22,19.16,19.16,0,0,0-.43,2.26,18.71,18.71,0,0,0,0,4.61,19.76,19.76,0,0,0,.44,2.27,13.11,13.11,0,0,0,.79,2.17,11.35,11.35,0,0,0,2.66,3.69A40.49,40.49,0,0,1,52,89.1a24.65,24.65,0,0,1-.65-4.16,24.34,24.34,0,0,1,.11-4.18c.07-.7.18-1.39.3-2.09s.28-1.39.45-2h0l-1.56.16L54.62,83Z"/><path class="cls-4" d="M12.44,117.42l-6,.16-.81,1.12a4,4,0,0,0,.45.93,7.87,7.87,0,0,0,.55.71,5.26,5.26,0,0,0,.63.62,4.88,4.88,0,0,0,.68.54l.71.48.74.4a12.9,12.9,0,0,0,1.54.65,23.36,23.36,0,0,0,6.36,1.16,41.69,41.69,0,0,0,6.33-.22l1.56-.23a15.54,15.54,0,0,0,1.54-.31,31,31,0,0,0,3-.89c-1.06-.09-2.1-.1-3.14-.09s-2.07,0-3.09,0l-.77,0H19.7l-.76,0-1.52-.09a26.46,26.46,0,0,1-5.82-1.17,10.33,10.33,0,0,1-1.33-.55l-.63-.31-.59-.37a4.56,4.56,0,0,1-.55-.4,4.32,4.32,0,0,1-.5-.45,4.79,4.79,0,0,1-.43-.47l-.17-.25a.6.6,0,0,1-.06-.11l0-.06s0,0,0,0l-.81,1.12,6-.16Z"/><path class="cls-4" d="M13.21,121.87l-3,.65L9,122.8l.75,1h0a4.76,4.76,0,0,0,.52.65c.17.19.36.36.54.53l.58.46.61.4c.2.14.42.24.63.36s.42.24.65.33l.66.27.33.14.34.1a18.14,18.14,0,0,0,5.53.87h.69l.69,0,1.37-.08c.91-.11,1.82-.21,2.71-.39s1.76-.41,2.62-.7a25,25,0,0,0,2.51-1,26.4,26.4,0,0,0-2.69.11c-.44,0-.89,0-1.33.07l-1.31.1-2.61.14-1.29,0h-.65l-.64-.05c-.42,0-.85,0-1.27-.1s-.84-.13-1.26-.18a17.6,17.6,0,0,1-2.43-.6l-.3-.08-.29-.12-.57-.22c-.19-.07-.37-.18-.55-.26a5.52,5.52,0,0,1-.54-.28l-.52-.3-.48-.34c-.15-.12-.31-.24-.45-.37a3.9,3.9,0,0,1-.35-.34h0l-.54,1.33,2.95-.65Z"/><path class="cls-4" d="M17.92,126.08l-3.67,1.53-1.21.5.92.9h0a5,5,0,0,0,.6.52c.2.13.4.26.6.37s.4.23.6.32l.62.27a13.26,13.26,0,0,0,2.55.7,20.18,20.18,0,0,0,5.14.18c.43,0,.85-.08,1.27-.14l1.25-.17c.83-.16,1.65-.31,2.46-.53s1.61-.48,2.39-.78,1.54-.66,2.28-1.05c-.85,0-1.67.11-2.49.22L30,129l-1.22.15c-.8.08-1.61.15-2.41.25l-1.2.08c-.4,0-.8,0-1.2,0l-1.19,0-1.19-.05c-.39,0-.78-.07-1.17-.1a11,11,0,0,1-1.15-.17,13.59,13.59,0,0,1-2.22-.55c-.35-.13-.69-.26-1-.42l-.47-.25-.36-.24h0l-.29,1.4,3.68-1.53Z"/><path class="cls-4" d="M20.75,129.83l-2.64,2.27-.89.78,1,.61h0c.23.14.39.22.58.32s.36.17.54.26a11.32,11.32,0,0,0,1.11.4,14.82,14.82,0,0,0,2.26.53,20.51,20.51,0,0,0,4.56.17l1.13-.1,1.11-.17a17.86,17.86,0,0,0,2.2-.45,22.1,22.1,0,0,0,2.13-.7,18.73,18.73,0,0,0,2-1,20.13,20.13,0,0,0-2.22.19c-.73.05-1.44.15-2.16.23a38.44,38.44,0,0,1-4.27.29,25.37,25.37,0,0,1-4.19-.31,19.69,19.69,0,0,1-2-.46c-.33-.09-.65-.2-1-.31l-.46-.18-.4-.18h0l.1,1.38,2.63-2.28Z"/><path class="cls-4" d="M28.3,133.54l-2.57,2.06-.93.75,1,.64h0l.51.32a4.52,4.52,0,0,0,.49.25,7.47,7.47,0,0,0,1,.38,10.46,10.46,0,0,0,2.05.46,14.19,14.19,0,0,0,4.12-.12l1-.2,1-.27a17.11,17.11,0,0,0,1.9-.68,18.5,18.5,0,0,0,1.75-1,15.63,15.63,0,0,0,1.56-1.26,14.81,14.81,0,0,0-1.94.42c-.63.13-1.24.3-1.85.46a24.43,24.43,0,0,1-3.65.69,16.13,16.13,0,0,1-3.61,0,12.45,12.45,0,0,1-1.74-.34c-.28-.07-.56-.17-.83-.26l-.39-.15-.34-.16h0l.06,1.39,2.57-2.06Z"/><path class="cls-4" d="M38.42,140.61A7.69,7.69,0,0,0,43,139.12l-1-1.4a6.18,6.18,0,0,1-5.21.95l1.05-1.57-1.45-.95-2.21,3.3.87.44A8.42,8.42,0,0,0,38.42,140.61Z"/><path class="cls-4" d="M41.12,153.73a6,6,0,0,0,2.51,2.1,7.48,7.48,0,0,0,1.6.52,8.16,8.16,0,0,0,1.71.21,8.54,8.54,0,0,0,1.74-.16,8.34,8.34,0,0,0,1.67-.54,8.48,8.48,0,0,0,2.73-2l-.43.22h0a49.18,49.18,0,0,0,6.88-1.51A18.09,18.09,0,0,0,65.8,149a23.38,23.38,0,0,0,2.5-2.58,30.61,30.61,0,0,0,2.07-2.9,42.43,42.43,0,0,0,3.18-6.27c.9-2.15,1.6-4.38,2.37-6.5a45.81,45.81,0,0,1,2.68-6.2,15.89,15.89,0,0,1,1.83-2.71,12.23,12.23,0,0,1,1.12-1.16c.2-.17.4-.35.62-.52a5,5,0,0,1,.6-.44c1.62-1,4-.7,5.93,0l1.15.43.06-1.18a4.63,4.63,0,0,0-.25-1.73,5.26,5.26,0,0,0-.82-1.49,7,7,0,0,0-1.16-1.15,8.64,8.64,0,0,0-1.39-.87l.46.5h0a7.73,7.73,0,0,0-.48-1,7.05,7.05,0,0,0-.59-.94,7.31,7.31,0,0,0-1.58-1.61A6.9,6.9,0,0,0,82,109.56l-.28-.08-.26-.07L81,109.3a9.36,9.36,0,0,0-1.08-.18,9,9,0,0,0-4.42.59A12.26,12.26,0,0,0,71.82,112,21.75,21.75,0,0,0,69,115.11,25.75,25.75,0,0,1,66.47,118a28,28,0,0,1-6.25,4.64,10.55,10.55,0,0,0,3.94-1.13,15.79,15.79,0,0,0,3.45-2.26,27.75,27.75,0,0,0,2.9-2.94,22.85,22.85,0,0,1,2.65-2.73,11.34,11.34,0,0,1,3.07-1.92,7.44,7.44,0,0,1,3.44-.46c.29,0,.59.07.89.13l.45.1.23,0,.2,0a5.1,5.1,0,0,1,1.49.71,6.22,6.22,0,0,1,1.25,1.16,7.3,7.3,0,0,1,.52.72,6.91,6.91,0,0,1,.41.73h0l.46.49a5.74,5.74,0,0,1,.51.29,4.67,4.67,0,0,1,.51.36,5,5,0,0,1,.87.85,3,3,0,0,1,.7,2.07l1.21-.76a11.67,11.67,0,0,0-1.82-.53,10.4,10.4,0,0,0-1.86-.24,6.87,6.87,0,0,0-3.82.88,6.59,6.59,0,0,0-.8.57c-.24.19-.47.39-.7.59a16,16,0,0,0-1.28,1.32,18.34,18.34,0,0,0-2,3,47.82,47.82,0,0,0-2.79,6.44c-.8,2.19-1.47,4.35-2.35,6.43a39.94,39.94,0,0,1-3,6A27.25,27.25,0,0,1,67,145.31a20.61,20.61,0,0,1-2.3,2.37A16.28,16.28,0,0,1,59,150.91a49.9,49.9,0,0,1-6.66,1.45h0l-.16,0-.27.2A11.41,11.41,0,0,1,49.51,154a7.81,7.81,0,0,1-2.61.64,10.29,10.29,0,0,1-2.79-.25C43.16,154.22,42.19,154,41.12,153.73Z"/><path class="cls-4" d="M32.66,169.74c4.78-.66,7.22-9,7.81-11.25a7.7,7.7,0,0,0,4.25-3.17l-1.54-.81a6.22,6.22,0,0,1-3.7,2.47l-.48.15-.11.49c-.64,2.73-3,9.93-6.47,10.41Z"/><path class="cls-4" d="M34,162.73c-.4,1-.73,2-1.08,3a19.83,19.83,0,0,1-1.16,2.76,11.28,11.28,0,0,1-1.62,2.37A9.51,9.51,0,0,1,28,172.6h0l1.22,1L31,165.23l-3.41,7.89L26.75,175l2-.85h0a7.82,7.82,0,0,0,2.84-2,11.43,11.43,0,0,0,1-1.39,13.47,13.47,0,0,0,.76-1.52,12.7,12.7,0,0,0,.85-3.21A8.16,8.16,0,0,0,34,162.73Z"/><path class="cls-4" d="M32.54,160.61c-.87.71-1.68,1.48-2.47,2.25s-1.56,1.57-2.3,2.39-1.47,1.63-2.17,2.48a27.21,27.21,0,0,0-1.93,2.68l-.17.27v.12h0l-.64,3.81-.25,1.5,1.42-.55h0a15.76,15.76,0,0,0,1.64-.84,15.22,15.22,0,0,0,1.5-1,9.4,9.4,0,0,0,1.36-1.24A6.67,6.67,0,0,0,29.6,171l-.7-.44a9.82,9.82,0,0,1-2.52,2,15.78,15.78,0,0,1-1.47.77,13.73,13.73,0,0,1-1.51.62h0l1.17,1,.65-3.82h0l-.18.39A26.75,26.75,0,0,0,27.2,169c.67-.87,1.32-1.76,1.92-2.68s1.22-1.84,1.79-2.78S32,161.61,32.54,160.61Z"/><path class="cls-4" d="M32.72,158.28a32.31,32.31,0,0,0-3,2.24c-1,.79-1.91,1.62-2.83,2.46s-1.84,1.68-2.75,2.54-1.81,1.72-2.69,2.59l-.08.08-.05.08c-.56.89-1.12,1.77-1.64,2.68l-.58,1,1,.3h0a6.31,6.31,0,0,0,1.2.23,7,7,0,0,0,1.21,0,5.24,5.24,0,0,0,1.21-.26,4.6,4.6,0,0,0,1.15-.58l-1-1.4a3.27,3.27,0,0,1-.7.35,3.52,3.52,0,0,1-.81.16,4.22,4.22,0,0,1-.87,0,4.65,4.65,0,0,1-.84-.16h0l.47,1.29c.61-.85,1.18-1.72,1.76-2.6l-.13.16c.89-.87,1.76-1.76,2.63-2.65s1.73-1.8,2.58-2.71,1.69-1.84,2.5-2.79A35.48,35.48,0,0,0,32.72,158.28Z"/><path class="cls-4" d="M29.69,158.91a26.2,26.2,0,0,0-2.89,1.9c-.92.68-1.79,1.41-2.67,2.14-1.75,1.46-3.46,3-5.07,4.57l-.93.94,1.17.48h0a5.19,5.19,0,0,0,.9.29,4.84,4.84,0,0,0,.94.12,3.39,3.39,0,0,0,1-.09,3.29,3.29,0,0,0,1-.39l-.91-1.47a1.78,1.78,0,0,1-1,.22,2.54,2.54,0,0,1-.6-.08,4.93,4.93,0,0,1-.57-.17l.23,1.42c1.74-1.47,3.37-3,5-4.67.8-.82,1.6-1.63,2.35-2.49A24.72,24.72,0,0,0,29.69,158.91Z"/><path class="cls-4" d="M27.39,158.81a13.52,13.52,0,0,0-2.27.94A22.38,22.38,0,0,0,23,160.94a31.34,31.34,0,0,0-3.89,2.75l-.83.69.75.65h0a4,4,0,0,0,.49.36,3.53,3.53,0,0,0,.5.28,4.67,4.67,0,0,0,1.11.37,3.93,3.93,0,0,0,2.37-.33l-.77-1.55a2,2,0,0,1-1.28.17,2.5,2.5,0,0,1-.67-.22l-.31-.17a1.76,1.76,0,0,1-.26-.19h0l-.08,1.34A33,33,0,0,0,24,162.26c.61-.51,1.22-1,1.78-1.59A13.72,13.72,0,0,0,27.39,158.81Z"/><path class="cls-4" d="M80.56,113.94a.87.87,0,1,1-.87-.87A.87.87,0,0,1,80.56,113.94Z"/><path class="cls-4" d="M51,84.92l-3.86-2.83-1-.71-.38,1.13h0a8.35,8.35,0,0,0-.34,1.08,9.75,9.75,0,0,0-.21,1A17.07,17.07,0,0,0,45,86.77,19.22,19.22,0,0,0,45.41,91a17.92,17.92,0,0,0,1.27,4,15.1,15.1,0,0,0,2.19,3.55c-.32-1.36-.67-2.66-.95-4s-.53-2.59-.68-3.88a28.07,28.07,0,0,1-.18-3.88q0-1,.12-1.92c0-.32.07-.64.11-1s.1-.64.16-.89h0l-1.35.42L50,86.31Z"/><path class="cls-4" d="M47.44,92.9l-3.86-3.1-1.2-1-.21,1.51h0A13.23,13.23,0,0,0,42,93.47a16,16,0,0,0,.41,3.07,12.67,12.67,0,0,0,1.06,2.93,8.68,8.68,0,0,0,1.86,2.46,19.39,19.39,0,0,1-.87-2.82A24.86,24.86,0,0,1,44,96.28c-.09-1-.12-1.9-.13-2.85s0-1.93.06-2.83h0l-1.41.55,3.86,3.1Z"/><path class="cls-4" d="M44.18,98.33l-2.29-.63-1-.28-.1,1h0a10.34,10.34,0,0,0-.16,1.89,16.26,16.26,0,0,0,.09,1.85,17.34,17.34,0,0,0,.79,3.62,16,16,0,0,0,1.54,3.36,8,8,0,0,0,2.64,2.62c-.32-1.23-.73-2.3-1.12-3.37-.19-.53-.4-1-.58-1.59s-.33-1.07-.48-1.61a28.2,28.2,0,0,1-.67-3.29c-.08-.56-.14-1.11-.2-1.67s-.09-1.14-.11-1.64h0l-1.11.75,2.29.63Z"/><path class="cls-4" d="M41.77,116.58l1.42-1a10.62,10.62,0,0,1-1.51-7.93l1.2.84,1-1.42-3.24-2.26-.37,1.12C40.21,106.17,38.4,111.93,41.77,116.58Z"/><path class="cls-4" d="M60.17,127.77a16.82,16.82,0,0,1-5.46-.76,26.32,26.32,0,0,1-2.58-.91c-.85-.35-1.69-.71-2.51-1.14a50.94,50.94,0,0,1-4.79-2.78c-1.57-1-3.09-2.08-4.6-3.2a29.55,29.55,0,0,0,4.1,3.88A31.75,31.75,0,0,0,49.08,126a19.5,19.5,0,0,0,5.38,2A10.64,10.64,0,0,0,60.17,127.77Z"/><path class="cls-4" d="M36.24,116.69a6.51,6.51,0,0,0,1.43,1.44,7.17,7.17,0,0,0,1.8,1,7,7,0,0,0,2,.44,5.32,5.32,0,0,0,2-.23,12.63,12.63,0,0,1-2-.23c-.32-.07-.63-.13-.94-.23l-.47-.13-.46-.16a11.6,11.6,0,0,1-1.75-.82c-.3-.15-.56-.34-.85-.51S36.53,116.87,36.24,116.69Z"/></g></g></svg>